<mxfile host="app.diagrams.net" modified="2024-03-01T14:43:03.740Z" agent="Mozilla/5.0 (Windows NT 10.0; Win64; x64) AppleWebKit/537.36 (KHTML, like Gecko) Chrome/122.0.0.0 Safari/537.36" etag="pTR42h8roz-W5l1nBjbK" version="24.0.0" type="device">
  <diagram name="Page-1" id="wcEjuhm-sv4-lGlNPhfb">
    <mxGraphModel dx="1834" dy="372" grid="1" gridSize="10" guides="1" tooltips="1" connect="1" arrows="1" fold="1" page="0" pageScale="1" pageWidth="850" pageHeight="1100" background="none" math="0" shadow="0">
      <root>
        <mxCell id="0" />
        <mxCell id="1" parent="0" />
        <mxCell id="Z1SM0eiADVsY9dwLEN33-17" value="" style="rounded=0;whiteSpace=wrap;html=1;fillColor=none;" vertex="1" parent="1">
          <mxGeometry x="-50" y="430" width="260" height="60" as="geometry" />
        </mxCell>
        <mxCell id="Z1SM0eiADVsY9dwLEN33-14" value="head" style="rounded=0;whiteSpace=wrap;html=1;" vertex="1" parent="1">
          <mxGeometry x="-40" y="440" width="80" height="40" as="geometry" />
        </mxCell>
        <mxCell id="Z1SM0eiADVsY9dwLEN33-15" value="tail" style="rounded=0;whiteSpace=wrap;html=1;" vertex="1" parent="1">
          <mxGeometry x="120" y="440" width="80" height="40" as="geometry" />
        </mxCell>
        <mxCell id="Z1SM0eiADVsY9dwLEN33-16" value="count" style="rounded=0;whiteSpace=wrap;html=1;" vertex="1" parent="1">
          <mxGeometry x="50" y="440" width="60" height="40" as="geometry" />
        </mxCell>
        <mxCell id="Z1SM0eiADVsY9dwLEN33-18" value="DoublyLinkedList" style="text;html=1;align=center;verticalAlign=middle;resizable=0;points=[];autosize=1;strokeColor=none;fillColor=none;" vertex="1" parent="1">
          <mxGeometry x="25" y="400" width="110" height="30" as="geometry" />
        </mxCell>
        <mxCell id="Z1SM0eiADVsY9dwLEN33-28" value="" style="group" vertex="1" connectable="0" parent="1">
          <mxGeometry x="-280" y="640" width="160" height="220" as="geometry" />
        </mxCell>
        <mxCell id="Z1SM0eiADVsY9dwLEN33-27" value="" style="rounded=0;whiteSpace=wrap;html=1;fillColor=none;" vertex="1" parent="Z1SM0eiADVsY9dwLEN33-28">
          <mxGeometry width="160" height="220" as="geometry" />
        </mxCell>
        <mxCell id="Z1SM0eiADVsY9dwLEN33-23" value="prev&lt;span style=&quot;white-space: pre;&quot;&gt;&#x9;&lt;/span&gt;" style="rounded=0;whiteSpace=wrap;html=1;fillColor=none;" vertex="1" parent="Z1SM0eiADVsY9dwLEN33-28">
          <mxGeometry x="20" y="20" width="120" height="40" as="geometry" />
        </mxCell>
        <mxCell id="Z1SM0eiADVsY9dwLEN33-25" value="data" style="rounded=0;whiteSpace=wrap;html=1;fillColor=none;" vertex="1" parent="Z1SM0eiADVsY9dwLEN33-28">
          <mxGeometry x="20" y="80" width="120" height="60" as="geometry" />
        </mxCell>
        <mxCell id="Z1SM0eiADVsY9dwLEN33-26" value="next" style="rounded=0;whiteSpace=wrap;html=1;fillColor=none;" vertex="1" parent="Z1SM0eiADVsY9dwLEN33-28">
          <mxGeometry x="20" y="160" width="120" height="40" as="geometry" />
        </mxCell>
        <mxCell id="Z1SM0eiADVsY9dwLEN33-40" value="" style="group" vertex="1" connectable="0" parent="1">
          <mxGeometry y="640" width="160" height="220" as="geometry" />
        </mxCell>
        <mxCell id="Z1SM0eiADVsY9dwLEN33-41" value="" style="rounded=0;whiteSpace=wrap;html=1;fillColor=none;" vertex="1" parent="Z1SM0eiADVsY9dwLEN33-40">
          <mxGeometry width="160" height="220" as="geometry" />
        </mxCell>
        <mxCell id="Z1SM0eiADVsY9dwLEN33-42" value="prev&lt;span style=&quot;white-space: pre;&quot;&gt;&#x9;&lt;/span&gt;" style="rounded=0;whiteSpace=wrap;html=1;fillColor=none;" vertex="1" parent="Z1SM0eiADVsY9dwLEN33-40">
          <mxGeometry x="20" y="20" width="120" height="40" as="geometry" />
        </mxCell>
        <mxCell id="Z1SM0eiADVsY9dwLEN33-43" value="data" style="rounded=0;whiteSpace=wrap;html=1;fillColor=none;" vertex="1" parent="Z1SM0eiADVsY9dwLEN33-40">
          <mxGeometry x="20" y="80" width="120" height="60" as="geometry" />
        </mxCell>
        <mxCell id="Z1SM0eiADVsY9dwLEN33-44" value="next" style="rounded=0;whiteSpace=wrap;html=1;fillColor=none;" vertex="1" parent="Z1SM0eiADVsY9dwLEN33-40">
          <mxGeometry x="20" y="160" width="120" height="40" as="geometry" />
        </mxCell>
        <mxCell id="Z1SM0eiADVsY9dwLEN33-50" value="" style="endArrow=classic;html=1;rounded=0;startSize=19;endSize=5;strokeWidth=2;strokeColor=#0000FF;" edge="1" parent="Z1SM0eiADVsY9dwLEN33-40">
          <mxGeometry width="50" height="50" relative="1" as="geometry">
            <mxPoint x="-140" y="179.5" as="sourcePoint" />
            <mxPoint y="180" as="targetPoint" />
          </mxGeometry>
        </mxCell>
        <mxCell id="Z1SM0eiADVsY9dwLEN33-45" value="" style="group" vertex="1" connectable="0" parent="1">
          <mxGeometry x="280" y="640" width="160" height="220" as="geometry" />
        </mxCell>
        <mxCell id="Z1SM0eiADVsY9dwLEN33-46" value="" style="rounded=0;whiteSpace=wrap;html=1;fillColor=none;" vertex="1" parent="Z1SM0eiADVsY9dwLEN33-45">
          <mxGeometry width="160" height="220" as="geometry" />
        </mxCell>
        <mxCell id="Z1SM0eiADVsY9dwLEN33-47" value="prev&lt;span style=&quot;white-space: pre;&quot;&gt;&#x9;&lt;/span&gt;" style="rounded=0;whiteSpace=wrap;html=1;fillColor=none;" vertex="1" parent="Z1SM0eiADVsY9dwLEN33-45">
          <mxGeometry x="20" y="20" width="120" height="40" as="geometry" />
        </mxCell>
        <mxCell id="Z1SM0eiADVsY9dwLEN33-48" value="data" style="rounded=0;whiteSpace=wrap;html=1;fillColor=none;" vertex="1" parent="Z1SM0eiADVsY9dwLEN33-45">
          <mxGeometry x="20" y="80" width="120" height="60" as="geometry" />
        </mxCell>
        <mxCell id="Z1SM0eiADVsY9dwLEN33-49" value="next" style="rounded=0;whiteSpace=wrap;html=1;fillColor=none;" vertex="1" parent="Z1SM0eiADVsY9dwLEN33-45">
          <mxGeometry x="20" y="160" width="120" height="40" as="geometry" />
        </mxCell>
        <mxCell id="Z1SM0eiADVsY9dwLEN33-53" value="" style="endArrow=classic;html=1;rounded=0;startSize=19;endSize=5;strokeWidth=2;strokeColor=#999999;" edge="1" parent="1">
          <mxGeometry width="50" height="50" relative="1" as="geometry">
            <mxPoint x="20" y="680.5" as="sourcePoint" />
            <mxPoint x="-120" y="680" as="targetPoint" />
          </mxGeometry>
        </mxCell>
        <mxCell id="Z1SM0eiADVsY9dwLEN33-55" value="" style="endArrow=classic;html=1;rounded=0;startSize=19;endSize=5;strokeWidth=2;strokeColor=#0000FF;" edge="1" parent="1">
          <mxGeometry width="50" height="50" relative="1" as="geometry">
            <mxPoint x="140" y="819.25" as="sourcePoint" />
            <mxPoint x="280" y="819.75" as="targetPoint" />
          </mxGeometry>
        </mxCell>
        <mxCell id="Z1SM0eiADVsY9dwLEN33-56" value="" style="endArrow=classic;html=1;rounded=0;startSize=19;endSize=5;strokeWidth=2;strokeColor=#999999;" edge="1" parent="1">
          <mxGeometry width="50" height="50" relative="1" as="geometry">
            <mxPoint x="300" y="680.25" as="sourcePoint" />
            <mxPoint x="160" y="679.75" as="targetPoint" />
          </mxGeometry>
        </mxCell>
        <mxCell id="Z1SM0eiADVsY9dwLEN33-57" value="" style="endArrow=classic;html=1;rounded=0;startSize=19;endSize=5;strokeWidth=2;strokeColor=#0000FF;" edge="1" parent="1">
          <mxGeometry width="50" height="50" relative="1" as="geometry">
            <mxPoint x="480" y="504.5" as="sourcePoint" />
            <mxPoint x="560" y="504.5" as="targetPoint" />
          </mxGeometry>
        </mxCell>
        <mxCell id="Z1SM0eiADVsY9dwLEN33-58" value="" style="endArrow=classic;html=1;rounded=0;startSize=19;endSize=5;strokeWidth=2;strokeColor=#999999;" edge="1" parent="1">
          <mxGeometry width="50" height="50" relative="1" as="geometry">
            <mxPoint x="560" y="434.5" as="sourcePoint" />
            <mxPoint x="480" y="434.5" as="targetPoint" />
          </mxGeometry>
        </mxCell>
        <mxCell id="Z1SM0eiADVsY9dwLEN33-59" value="Weak Reference" style="text;html=1;align=center;verticalAlign=middle;resizable=0;points=[];autosize=1;strokeColor=none;fillColor=none;" vertex="1" parent="1">
          <mxGeometry x="600" y="420" width="110" height="30" as="geometry" />
        </mxCell>
        <mxCell id="Z1SM0eiADVsY9dwLEN33-60" value="Strong Reference" style="text;html=1;align=center;verticalAlign=middle;resizable=0;points=[];autosize=1;strokeColor=none;fillColor=none;" vertex="1" parent="1">
          <mxGeometry x="590" y="490" width="120" height="30" as="geometry" />
        </mxCell>
        <mxCell id="Z1SM0eiADVsY9dwLEN33-61" value="" style="endArrow=classic;html=1;rounded=0;startSize=19;endSize=5;strokeWidth=2;strokeColor=#0000FF;entryX=0.5;entryY=0;entryDx=0;entryDy=0;exitX=0.5;exitY=1;exitDx=0;exitDy=0;" edge="1" parent="1" source="Z1SM0eiADVsY9dwLEN33-14" target="Z1SM0eiADVsY9dwLEN33-27">
          <mxGeometry width="50" height="50" relative="1" as="geometry">
            <mxPoint x="-152" y="513" as="sourcePoint" />
            <mxPoint x="570" y="514.5" as="targetPoint" />
          </mxGeometry>
        </mxCell>
        <mxCell id="Z1SM0eiADVsY9dwLEN33-62" value="" style="endArrow=classic;html=1;rounded=0;startSize=19;endSize=5;strokeWidth=2;strokeColor=#0000FF;exitX=0.5;exitY=1;exitDx=0;exitDy=0;entryX=0.5;entryY=0;entryDx=0;entryDy=0;" edge="1" parent="1" source="Z1SM0eiADVsY9dwLEN33-15" target="Z1SM0eiADVsY9dwLEN33-46">
          <mxGeometry width="50" height="50" relative="1" as="geometry">
            <mxPoint x="490" y="514.5" as="sourcePoint" />
            <mxPoint x="570" y="514.5" as="targetPoint" />
          </mxGeometry>
        </mxCell>
        <mxCell id="Z1SM0eiADVsY9dwLEN33-68" value="&lt;span style=&quot;color: rgb(0, 0, 0); font-family: Helvetica; font-size: 12px; font-style: normal; font-variant-ligatures: normal; font-variant-caps: normal; font-weight: 400; letter-spacing: normal; orphans: 2; text-indent: 0px; text-transform: none; widows: 2; word-spacing: 0px; -webkit-text-stroke-width: 0px; white-space: nowrap; background-color: rgb(255, 255, 255); text-decoration-thickness: initial; text-decoration-style: initial; text-decoration-color: initial; float: none; display: inline !important;&quot;&gt;Node&lt;/span&gt;" style="text;whiteSpace=wrap;html=1;align=center;verticalAlign=middle;" vertex="1" parent="1">
          <mxGeometry x="-260" y="860" width="120" height="20" as="geometry" />
        </mxCell>
        <mxCell id="Z1SM0eiADVsY9dwLEN33-69" value="&lt;span style=&quot;color: rgb(0, 0, 0); font-family: Helvetica; font-size: 12px; font-style: normal; font-variant-ligatures: normal; font-variant-caps: normal; font-weight: 400; letter-spacing: normal; orphans: 2; text-indent: 0px; text-transform: none; widows: 2; word-spacing: 0px; -webkit-text-stroke-width: 0px; white-space: nowrap; background-color: rgb(255, 255, 255); text-decoration-thickness: initial; text-decoration-style: initial; text-decoration-color: initial; float: none; display: inline !important;&quot;&gt;Node&lt;/span&gt;" style="text;whiteSpace=wrap;html=1;align=center;verticalAlign=middle;" vertex="1" parent="1">
          <mxGeometry x="20" y="860" width="120" height="20" as="geometry" />
        </mxCell>
        <mxCell id="Z1SM0eiADVsY9dwLEN33-70" value="&lt;span style=&quot;color: rgb(0, 0, 0); font-family: Helvetica; font-size: 12px; font-style: normal; font-variant-ligatures: normal; font-variant-caps: normal; font-weight: 400; letter-spacing: normal; orphans: 2; text-indent: 0px; text-transform: none; widows: 2; word-spacing: 0px; -webkit-text-stroke-width: 0px; white-space: nowrap; background-color: rgb(255, 255, 255); text-decoration-thickness: initial; text-decoration-style: initial; text-decoration-color: initial; float: none; display: inline !important;&quot;&gt;Node&lt;/span&gt;" style="text;whiteSpace=wrap;html=1;align=center;verticalAlign=middle;" vertex="1" parent="1">
          <mxGeometry x="300" y="860" width="120" height="20" as="geometry" />
        </mxCell>
        <mxCell id="Z1SM0eiADVsY9dwLEN33-71" value="" style="rounded=0;whiteSpace=wrap;html=1;fillColor=none;" vertex="1" parent="1">
          <mxGeometry x="-50" y="1030" width="260" height="60" as="geometry" />
        </mxCell>
        <mxCell id="Z1SM0eiADVsY9dwLEN33-72" value="head" style="rounded=0;whiteSpace=wrap;html=1;" vertex="1" parent="1">
          <mxGeometry x="-40" y="1040" width="80" height="40" as="geometry" />
        </mxCell>
        <mxCell id="Z1SM0eiADVsY9dwLEN33-73" value="tail" style="rounded=0;whiteSpace=wrap;html=1;" vertex="1" parent="1">
          <mxGeometry x="120" y="1040" width="80" height="40" as="geometry" />
        </mxCell>
        <mxCell id="Z1SM0eiADVsY9dwLEN33-74" value="count" style="rounded=0;whiteSpace=wrap;html=1;" vertex="1" parent="1">
          <mxGeometry x="50" y="1040" width="60" height="40" as="geometry" />
        </mxCell>
        <mxCell id="Z1SM0eiADVsY9dwLEN33-75" value="DoublyLinkedList" style="text;html=1;align=center;verticalAlign=middle;resizable=0;points=[];autosize=1;strokeColor=none;fillColor=none;" vertex="1" parent="1">
          <mxGeometry x="25" y="1000" width="110" height="30" as="geometry" />
        </mxCell>
        <mxCell id="Z1SM0eiADVsY9dwLEN33-76" value="" style="group" vertex="1" connectable="0" parent="1">
          <mxGeometry x="-280" y="1240" width="160" height="220" as="geometry" />
        </mxCell>
        <mxCell id="Z1SM0eiADVsY9dwLEN33-77" value="" style="rounded=0;whiteSpace=wrap;html=1;fillColor=none;" vertex="1" parent="Z1SM0eiADVsY9dwLEN33-76">
          <mxGeometry width="160" height="220" as="geometry" />
        </mxCell>
        <mxCell id="Z1SM0eiADVsY9dwLEN33-78" value="prev&lt;span style=&quot;white-space: pre;&quot;&gt;&#x9;&lt;/span&gt;" style="rounded=0;whiteSpace=wrap;html=1;fillColor=none;" vertex="1" parent="Z1SM0eiADVsY9dwLEN33-76">
          <mxGeometry x="20" y="20" width="120" height="40" as="geometry" />
        </mxCell>
        <mxCell id="Z1SM0eiADVsY9dwLEN33-79" value="data" style="rounded=0;whiteSpace=wrap;html=1;fillColor=none;" vertex="1" parent="Z1SM0eiADVsY9dwLEN33-76">
          <mxGeometry x="20" y="80" width="120" height="60" as="geometry" />
        </mxCell>
        <mxCell id="Z1SM0eiADVsY9dwLEN33-80" value="next" style="rounded=0;whiteSpace=wrap;html=1;fillColor=none;" vertex="1" parent="Z1SM0eiADVsY9dwLEN33-76">
          <mxGeometry x="20" y="160" width="120" height="40" as="geometry" />
        </mxCell>
        <mxCell id="Z1SM0eiADVsY9dwLEN33-81" value="" style="group" vertex="1" connectable="0" parent="1">
          <mxGeometry y="1240" width="160" height="220" as="geometry" />
        </mxCell>
        <mxCell id="Z1SM0eiADVsY9dwLEN33-82" value="" style="rounded=0;whiteSpace=wrap;html=1;fillColor=none;" vertex="1" parent="Z1SM0eiADVsY9dwLEN33-81">
          <mxGeometry width="160" height="220" as="geometry" />
        </mxCell>
        <mxCell id="Z1SM0eiADVsY9dwLEN33-83" value="prev&lt;span style=&quot;white-space: pre;&quot;&gt;&#x9;&lt;/span&gt;" style="rounded=0;whiteSpace=wrap;html=1;fillColor=none;" vertex="1" parent="Z1SM0eiADVsY9dwLEN33-81">
          <mxGeometry x="20" y="20" width="120" height="40" as="geometry" />
        </mxCell>
        <mxCell id="Z1SM0eiADVsY9dwLEN33-84" value="data" style="rounded=0;whiteSpace=wrap;html=1;fillColor=none;" vertex="1" parent="Z1SM0eiADVsY9dwLEN33-81">
          <mxGeometry x="20" y="80" width="120" height="60" as="geometry" />
        </mxCell>
        <mxCell id="Z1SM0eiADVsY9dwLEN33-85" value="next" style="rounded=0;whiteSpace=wrap;html=1;fillColor=none;" vertex="1" parent="Z1SM0eiADVsY9dwLEN33-81">
          <mxGeometry x="20" y="160" width="120" height="40" as="geometry" />
        </mxCell>
        <mxCell id="Z1SM0eiADVsY9dwLEN33-86" value="" style="endArrow=classic;html=1;rounded=0;startSize=19;endSize=5;strokeWidth=2;strokeColor=#0000FF;" edge="1" parent="Z1SM0eiADVsY9dwLEN33-81">
          <mxGeometry width="50" height="50" relative="1" as="geometry">
            <mxPoint x="-140" y="179.5" as="sourcePoint" />
            <mxPoint y="180" as="targetPoint" />
          </mxGeometry>
        </mxCell>
        <mxCell id="Z1SM0eiADVsY9dwLEN33-87" value="" style="group" vertex="1" connectable="0" parent="1">
          <mxGeometry x="280" y="1240" width="160" height="220" as="geometry" />
        </mxCell>
        <mxCell id="Z1SM0eiADVsY9dwLEN33-88" value="" style="rounded=0;whiteSpace=wrap;html=1;fillColor=none;" vertex="1" parent="Z1SM0eiADVsY9dwLEN33-87">
          <mxGeometry width="160" height="220" as="geometry" />
        </mxCell>
        <mxCell id="Z1SM0eiADVsY9dwLEN33-89" value="prev&lt;span style=&quot;white-space: pre;&quot;&gt;&#x9;&lt;/span&gt;" style="rounded=0;whiteSpace=wrap;html=1;fillColor=none;" vertex="1" parent="Z1SM0eiADVsY9dwLEN33-87">
          <mxGeometry x="20" y="20" width="120" height="40" as="geometry" />
        </mxCell>
        <mxCell id="Z1SM0eiADVsY9dwLEN33-90" value="data" style="rounded=0;whiteSpace=wrap;html=1;fillColor=none;" vertex="1" parent="Z1SM0eiADVsY9dwLEN33-87">
          <mxGeometry x="20" y="80" width="120" height="60" as="geometry" />
        </mxCell>
        <mxCell id="Z1SM0eiADVsY9dwLEN33-91" value="next" style="rounded=0;whiteSpace=wrap;html=1;fillColor=none;" vertex="1" parent="Z1SM0eiADVsY9dwLEN33-87">
          <mxGeometry x="20" y="160" width="120" height="40" as="geometry" />
        </mxCell>
        <mxCell id="Z1SM0eiADVsY9dwLEN33-92" value="" style="endArrow=classic;html=1;rounded=0;startSize=19;endSize=5;strokeWidth=2;strokeColor=#999999;" edge="1" parent="1">
          <mxGeometry width="50" height="50" relative="1" as="geometry">
            <mxPoint x="20" y="1280.5" as="sourcePoint" />
            <mxPoint x="-120" y="1280" as="targetPoint" />
          </mxGeometry>
        </mxCell>
        <mxCell id="Z1SM0eiADVsY9dwLEN33-93" value="" style="endArrow=classic;html=1;rounded=0;startSize=19;endSize=5;strokeWidth=2;strokeColor=#0000FF;" edge="1" parent="1">
          <mxGeometry width="50" height="50" relative="1" as="geometry">
            <mxPoint x="140" y="1419.25" as="sourcePoint" />
            <mxPoint x="280" y="1419.75" as="targetPoint" />
          </mxGeometry>
        </mxCell>
        <mxCell id="Z1SM0eiADVsY9dwLEN33-94" value="" style="endArrow=classic;html=1;rounded=0;startSize=19;endSize=5;strokeWidth=2;strokeColor=#999999;" edge="1" parent="1">
          <mxGeometry width="50" height="50" relative="1" as="geometry">
            <mxPoint x="300" y="1280.25" as="sourcePoint" />
            <mxPoint x="160" y="1279.75" as="targetPoint" />
          </mxGeometry>
        </mxCell>
        <mxCell id="Z1SM0eiADVsY9dwLEN33-99" value="" style="endArrow=classic;html=1;rounded=0;startSize=19;endSize=5;strokeWidth=2;strokeColor=#0000FF;entryX=0.5;entryY=0;entryDx=0;entryDy=0;exitX=0.5;exitY=1;exitDx=0;exitDy=0;" edge="1" parent="1" source="Z1SM0eiADVsY9dwLEN33-72" target="Z1SM0eiADVsY9dwLEN33-77">
          <mxGeometry width="50" height="50" relative="1" as="geometry">
            <mxPoint x="-152" y="1113" as="sourcePoint" />
            <mxPoint x="570" y="1114.5" as="targetPoint" />
          </mxGeometry>
        </mxCell>
        <mxCell id="Z1SM0eiADVsY9dwLEN33-100" value="" style="endArrow=classic;html=1;rounded=0;startSize=19;endSize=5;strokeWidth=2;strokeColor=#999999;exitX=0.5;exitY=1;exitDx=0;exitDy=0;entryX=0.5;entryY=0;entryDx=0;entryDy=0;" edge="1" parent="1" source="Z1SM0eiADVsY9dwLEN33-73" target="Z1SM0eiADVsY9dwLEN33-88">
          <mxGeometry width="50" height="50" relative="1" as="geometry">
            <mxPoint x="490" y="1114.5" as="sourcePoint" />
            <mxPoint x="570" y="1114.5" as="targetPoint" />
          </mxGeometry>
        </mxCell>
        <mxCell id="Z1SM0eiADVsY9dwLEN33-101" value="&lt;span style=&quot;color: rgb(0, 0, 0); font-family: Helvetica; font-size: 12px; font-style: normal; font-variant-ligatures: normal; font-variant-caps: normal; font-weight: 400; letter-spacing: normal; orphans: 2; text-indent: 0px; text-transform: none; widows: 2; word-spacing: 0px; -webkit-text-stroke-width: 0px; white-space: nowrap; background-color: rgb(255, 255, 255); text-decoration-thickness: initial; text-decoration-style: initial; text-decoration-color: initial; float: none; display: inline !important;&quot;&gt;Node&lt;/span&gt;" style="text;whiteSpace=wrap;html=1;align=center;verticalAlign=middle;" vertex="1" parent="1">
          <mxGeometry x="-260" y="1460" width="120" height="20" as="geometry" />
        </mxCell>
        <mxCell id="Z1SM0eiADVsY9dwLEN33-102" value="&lt;span style=&quot;color: rgb(0, 0, 0); font-family: Helvetica; font-size: 12px; font-style: normal; font-variant-ligatures: normal; font-variant-caps: normal; font-weight: 400; letter-spacing: normal; orphans: 2; text-indent: 0px; text-transform: none; widows: 2; word-spacing: 0px; -webkit-text-stroke-width: 0px; white-space: nowrap; background-color: rgb(255, 255, 255); text-decoration-thickness: initial; text-decoration-style: initial; text-decoration-color: initial; float: none; display: inline !important;&quot;&gt;Node&lt;/span&gt;" style="text;whiteSpace=wrap;html=1;align=center;verticalAlign=middle;" vertex="1" parent="1">
          <mxGeometry x="20" y="1460" width="120" height="20" as="geometry" />
        </mxCell>
        <mxCell id="Z1SM0eiADVsY9dwLEN33-103" value="&lt;span style=&quot;color: rgb(0, 0, 0); font-family: Helvetica; font-size: 12px; font-style: normal; font-variant-ligatures: normal; font-variant-caps: normal; font-weight: 400; letter-spacing: normal; orphans: 2; text-indent: 0px; text-transform: none; widows: 2; word-spacing: 0px; -webkit-text-stroke-width: 0px; white-space: nowrap; background-color: rgb(255, 255, 255); text-decoration-thickness: initial; text-decoration-style: initial; text-decoration-color: initial; float: none; display: inline !important;&quot;&gt;Node&lt;/span&gt;" style="text;whiteSpace=wrap;html=1;align=center;verticalAlign=middle;" vertex="1" parent="1">
          <mxGeometry x="300" y="1460" width="120" height="20" as="geometry" />
        </mxCell>
        <mxCell id="Z1SM0eiADVsY9dwLEN33-104" value="" style="group" vertex="1" connectable="0" parent="1">
          <mxGeometry x="600" y="1240" width="160" height="220" as="geometry" />
        </mxCell>
        <mxCell id="Z1SM0eiADVsY9dwLEN33-105" value="" style="rounded=0;whiteSpace=wrap;html=1;fillColor=none;" vertex="1" parent="Z1SM0eiADVsY9dwLEN33-104">
          <mxGeometry width="160" height="220" as="geometry" />
        </mxCell>
        <mxCell id="Z1SM0eiADVsY9dwLEN33-106" value="prev&lt;span style=&quot;white-space: pre;&quot;&gt;&#x9;&lt;/span&gt;" style="rounded=0;whiteSpace=wrap;html=1;fillColor=none;" vertex="1" parent="Z1SM0eiADVsY9dwLEN33-104">
          <mxGeometry x="20" y="20" width="120" height="40" as="geometry" />
        </mxCell>
        <mxCell id="Z1SM0eiADVsY9dwLEN33-107" value="data" style="rounded=0;whiteSpace=wrap;html=1;fillColor=none;" vertex="1" parent="Z1SM0eiADVsY9dwLEN33-104">
          <mxGeometry x="20" y="80" width="120" height="60" as="geometry" />
        </mxCell>
        <mxCell id="Z1SM0eiADVsY9dwLEN33-108" value="next" style="rounded=0;whiteSpace=wrap;html=1;fillColor=none;" vertex="1" parent="Z1SM0eiADVsY9dwLEN33-104">
          <mxGeometry x="20" y="160" width="120" height="40" as="geometry" />
        </mxCell>
        <mxCell id="Z1SM0eiADVsY9dwLEN33-109" value="&lt;span style=&quot;color: rgb(0, 0, 0); font-family: Helvetica; font-size: 12px; font-style: normal; font-variant-ligatures: normal; font-variant-caps: normal; font-weight: 400; letter-spacing: normal; orphans: 2; text-indent: 0px; text-transform: none; widows: 2; word-spacing: 0px; -webkit-text-stroke-width: 0px; white-space: nowrap; background-color: rgb(255, 255, 255); text-decoration-thickness: initial; text-decoration-style: initial; text-decoration-color: initial; float: none; display: inline !important;&quot;&gt;New Node&lt;/span&gt;" style="text;whiteSpace=wrap;html=1;align=center;verticalAlign=middle;" vertex="1" parent="1">
          <mxGeometry x="620" y="1460" width="120" height="20" as="geometry" />
        </mxCell>
        <mxCell id="Z1SM0eiADVsY9dwLEN33-110" value="" style="rounded=0;whiteSpace=wrap;html=1;fillColor=none;" vertex="1" parent="1">
          <mxGeometry x="-50" y="1590" width="260" height="60" as="geometry" />
        </mxCell>
        <mxCell id="Z1SM0eiADVsY9dwLEN33-111" value="head" style="rounded=0;whiteSpace=wrap;html=1;" vertex="1" parent="1">
          <mxGeometry x="-40" y="1600" width="80" height="40" as="geometry" />
        </mxCell>
        <mxCell id="Z1SM0eiADVsY9dwLEN33-112" value="None" style="rounded=0;whiteSpace=wrap;html=1;fillColor=#999999;strokeColor=none;fontColor=#FFFFFF;" vertex="1" parent="1">
          <mxGeometry x="120" y="1600" width="80" height="40" as="geometry" />
        </mxCell>
        <mxCell id="Z1SM0eiADVsY9dwLEN33-113" value="count" style="rounded=0;whiteSpace=wrap;html=1;" vertex="1" parent="1">
          <mxGeometry x="50" y="1600" width="60" height="40" as="geometry" />
        </mxCell>
        <mxCell id="Z1SM0eiADVsY9dwLEN33-114" value="DoublyLinkedList" style="text;html=1;align=center;verticalAlign=middle;resizable=0;points=[];autosize=1;strokeColor=none;fillColor=none;" vertex="1" parent="1">
          <mxGeometry x="25" y="1560" width="110" height="30" as="geometry" />
        </mxCell>
        <mxCell id="Z1SM0eiADVsY9dwLEN33-115" value="" style="group" vertex="1" connectable="0" parent="1">
          <mxGeometry x="-280" y="1800" width="160" height="220" as="geometry" />
        </mxCell>
        <mxCell id="Z1SM0eiADVsY9dwLEN33-116" value="" style="rounded=0;whiteSpace=wrap;html=1;fillColor=none;" vertex="1" parent="Z1SM0eiADVsY9dwLEN33-115">
          <mxGeometry width="160" height="220" as="geometry" />
        </mxCell>
        <mxCell id="Z1SM0eiADVsY9dwLEN33-117" value="prev&lt;span style=&quot;white-space: pre;&quot;&gt;&#x9;&lt;/span&gt;" style="rounded=0;whiteSpace=wrap;html=1;fillColor=none;" vertex="1" parent="Z1SM0eiADVsY9dwLEN33-115">
          <mxGeometry x="20" y="20" width="120" height="40" as="geometry" />
        </mxCell>
        <mxCell id="Z1SM0eiADVsY9dwLEN33-118" value="data" style="rounded=0;whiteSpace=wrap;html=1;fillColor=none;" vertex="1" parent="Z1SM0eiADVsY9dwLEN33-115">
          <mxGeometry x="20" y="80" width="120" height="60" as="geometry" />
        </mxCell>
        <mxCell id="Z1SM0eiADVsY9dwLEN33-119" value="next" style="rounded=0;whiteSpace=wrap;html=1;fillColor=none;" vertex="1" parent="Z1SM0eiADVsY9dwLEN33-115">
          <mxGeometry x="20" y="160" width="120" height="40" as="geometry" />
        </mxCell>
        <mxCell id="Z1SM0eiADVsY9dwLEN33-120" value="" style="group" vertex="1" connectable="0" parent="1">
          <mxGeometry y="1800" width="160" height="220" as="geometry" />
        </mxCell>
        <mxCell id="Z1SM0eiADVsY9dwLEN33-121" value="" style="rounded=0;whiteSpace=wrap;html=1;fillColor=none;" vertex="1" parent="Z1SM0eiADVsY9dwLEN33-120">
          <mxGeometry width="160" height="220" as="geometry" />
        </mxCell>
        <mxCell id="Z1SM0eiADVsY9dwLEN33-122" value="prev&lt;span style=&quot;white-space: pre;&quot;&gt;&#x9;&lt;/span&gt;" style="rounded=0;whiteSpace=wrap;html=1;fillColor=none;" vertex="1" parent="Z1SM0eiADVsY9dwLEN33-120">
          <mxGeometry x="20" y="20" width="120" height="40" as="geometry" />
        </mxCell>
        <mxCell id="Z1SM0eiADVsY9dwLEN33-123" value="data" style="rounded=0;whiteSpace=wrap;html=1;fillColor=none;" vertex="1" parent="Z1SM0eiADVsY9dwLEN33-120">
          <mxGeometry x="20" y="80" width="120" height="60" as="geometry" />
        </mxCell>
        <mxCell id="Z1SM0eiADVsY9dwLEN33-124" value="next" style="rounded=0;whiteSpace=wrap;html=1;fillColor=none;" vertex="1" parent="Z1SM0eiADVsY9dwLEN33-120">
          <mxGeometry x="20" y="160" width="120" height="40" as="geometry" />
        </mxCell>
        <mxCell id="Z1SM0eiADVsY9dwLEN33-125" value="" style="endArrow=classic;html=1;rounded=0;startSize=19;endSize=5;strokeWidth=2;strokeColor=#0000FF;" edge="1" parent="Z1SM0eiADVsY9dwLEN33-120">
          <mxGeometry width="50" height="50" relative="1" as="geometry">
            <mxPoint x="-140" y="179.5" as="sourcePoint" />
            <mxPoint y="180" as="targetPoint" />
          </mxGeometry>
        </mxCell>
        <mxCell id="Z1SM0eiADVsY9dwLEN33-126" value="" style="group" vertex="1" connectable="0" parent="1">
          <mxGeometry x="280" y="1800" width="160" height="220" as="geometry" />
        </mxCell>
        <mxCell id="Z1SM0eiADVsY9dwLEN33-127" value="" style="rounded=0;whiteSpace=wrap;html=1;fillColor=none;" vertex="1" parent="Z1SM0eiADVsY9dwLEN33-126">
          <mxGeometry width="160" height="220" as="geometry" />
        </mxCell>
        <mxCell id="Z1SM0eiADVsY9dwLEN33-128" value="prev&lt;span style=&quot;white-space: pre;&quot;&gt;&#x9;&lt;/span&gt;" style="rounded=0;whiteSpace=wrap;html=1;fillColor=none;" vertex="1" parent="Z1SM0eiADVsY9dwLEN33-126">
          <mxGeometry x="20" y="20" width="120" height="40" as="geometry" />
        </mxCell>
        <mxCell id="Z1SM0eiADVsY9dwLEN33-129" value="data" style="rounded=0;whiteSpace=wrap;html=1;fillColor=none;" vertex="1" parent="Z1SM0eiADVsY9dwLEN33-126">
          <mxGeometry x="20" y="80" width="120" height="60" as="geometry" />
        </mxCell>
        <mxCell id="Z1SM0eiADVsY9dwLEN33-130" value="next" style="rounded=0;whiteSpace=wrap;html=1;fillColor=none;" vertex="1" parent="Z1SM0eiADVsY9dwLEN33-126">
          <mxGeometry x="20" y="160" width="120" height="40" as="geometry" />
        </mxCell>
        <mxCell id="Z1SM0eiADVsY9dwLEN33-131" value="" style="endArrow=classic;html=1;rounded=0;startSize=19;endSize=5;strokeWidth=2;strokeColor=#999999;" edge="1" parent="1">
          <mxGeometry width="50" height="50" relative="1" as="geometry">
            <mxPoint x="20" y="1840.5" as="sourcePoint" />
            <mxPoint x="-120" y="1840" as="targetPoint" />
          </mxGeometry>
        </mxCell>
        <mxCell id="Z1SM0eiADVsY9dwLEN33-132" value="" style="endArrow=classic;html=1;rounded=0;startSize=19;endSize=5;strokeWidth=2;strokeColor=#0000FF;" edge="1" parent="1">
          <mxGeometry width="50" height="50" relative="1" as="geometry">
            <mxPoint x="140" y="1979.25" as="sourcePoint" />
            <mxPoint x="280" y="1979.75" as="targetPoint" />
          </mxGeometry>
        </mxCell>
        <mxCell id="Z1SM0eiADVsY9dwLEN33-133" value="" style="endArrow=classic;html=1;rounded=0;startSize=19;endSize=5;strokeWidth=2;strokeColor=#999999;" edge="1" parent="1">
          <mxGeometry width="50" height="50" relative="1" as="geometry">
            <mxPoint x="300" y="1840.25" as="sourcePoint" />
            <mxPoint x="160" y="1839.75" as="targetPoint" />
          </mxGeometry>
        </mxCell>
        <mxCell id="Z1SM0eiADVsY9dwLEN33-134" value="" style="endArrow=classic;html=1;rounded=0;startSize=19;endSize=5;strokeWidth=2;strokeColor=#0000FF;entryX=0.5;entryY=0;entryDx=0;entryDy=0;exitX=0.5;exitY=1;exitDx=0;exitDy=0;" edge="1" parent="1" source="Z1SM0eiADVsY9dwLEN33-111" target="Z1SM0eiADVsY9dwLEN33-116">
          <mxGeometry width="50" height="50" relative="1" as="geometry">
            <mxPoint x="-152" y="1673" as="sourcePoint" />
            <mxPoint x="570" y="1674.5" as="targetPoint" />
          </mxGeometry>
        </mxCell>
        <mxCell id="Z1SM0eiADVsY9dwLEN33-136" value="&lt;span style=&quot;color: rgb(0, 0, 0); font-family: Helvetica; font-size: 12px; font-style: normal; font-variant-ligatures: normal; font-variant-caps: normal; font-weight: 400; letter-spacing: normal; orphans: 2; text-indent: 0px; text-transform: none; widows: 2; word-spacing: 0px; -webkit-text-stroke-width: 0px; white-space: nowrap; background-color: rgb(255, 255, 255); text-decoration-thickness: initial; text-decoration-style: initial; text-decoration-color: initial; float: none; display: inline !important;&quot;&gt;Node&lt;/span&gt;" style="text;whiteSpace=wrap;html=1;align=center;verticalAlign=middle;" vertex="1" parent="1">
          <mxGeometry x="-260" y="2020" width="120" height="20" as="geometry" />
        </mxCell>
        <mxCell id="Z1SM0eiADVsY9dwLEN33-137" value="&lt;span style=&quot;color: rgb(0, 0, 0); font-family: Helvetica; font-size: 12px; font-style: normal; font-variant-ligatures: normal; font-variant-caps: normal; font-weight: 400; letter-spacing: normal; orphans: 2; text-indent: 0px; text-transform: none; widows: 2; word-spacing: 0px; -webkit-text-stroke-width: 0px; white-space: nowrap; background-color: rgb(255, 255, 255); text-decoration-thickness: initial; text-decoration-style: initial; text-decoration-color: initial; float: none; display: inline !important;&quot;&gt;Node&lt;/span&gt;" style="text;whiteSpace=wrap;html=1;align=center;verticalAlign=middle;" vertex="1" parent="1">
          <mxGeometry x="20" y="2020" width="120" height="20" as="geometry" />
        </mxCell>
        <mxCell id="Z1SM0eiADVsY9dwLEN33-138" value="&lt;span style=&quot;color: rgb(0, 0, 0); font-family: Helvetica; font-size: 12px; font-style: normal; font-variant-ligatures: normal; font-variant-caps: normal; font-weight: 400; letter-spacing: normal; orphans: 2; text-indent: 0px; text-transform: none; widows: 2; word-spacing: 0px; -webkit-text-stroke-width: 0px; white-space: nowrap; background-color: rgb(255, 255, 255); text-decoration-thickness: initial; text-decoration-style: initial; text-decoration-color: initial; float: none; display: inline !important;&quot;&gt;Node&lt;/span&gt;" style="text;whiteSpace=wrap;html=1;align=center;verticalAlign=middle;" vertex="1" parent="1">
          <mxGeometry x="300" y="2020" width="120" height="20" as="geometry" />
        </mxCell>
        <mxCell id="Z1SM0eiADVsY9dwLEN33-139" value="" style="group" vertex="1" connectable="0" parent="1">
          <mxGeometry x="600" y="1800" width="160" height="220" as="geometry" />
        </mxCell>
        <mxCell id="Z1SM0eiADVsY9dwLEN33-140" value="" style="rounded=0;whiteSpace=wrap;html=1;fillColor=none;" vertex="1" parent="Z1SM0eiADVsY9dwLEN33-139">
          <mxGeometry width="160" height="220" as="geometry" />
        </mxCell>
        <mxCell id="Z1SM0eiADVsY9dwLEN33-141" value="prev&lt;span style=&quot;white-space: pre;&quot;&gt;&#x9;&lt;/span&gt;" style="rounded=0;whiteSpace=wrap;html=1;fillColor=none;" vertex="1" parent="Z1SM0eiADVsY9dwLEN33-139">
          <mxGeometry x="20" y="20" width="120" height="40" as="geometry" />
        </mxCell>
        <mxCell id="Z1SM0eiADVsY9dwLEN33-142" value="data" style="rounded=0;whiteSpace=wrap;html=1;fillColor=none;" vertex="1" parent="Z1SM0eiADVsY9dwLEN33-139">
          <mxGeometry x="20" y="80" width="120" height="60" as="geometry" />
        </mxCell>
        <mxCell id="Z1SM0eiADVsY9dwLEN33-143" value="next" style="rounded=0;whiteSpace=wrap;html=1;fillColor=none;" vertex="1" parent="Z1SM0eiADVsY9dwLEN33-139">
          <mxGeometry x="20" y="160" width="120" height="40" as="geometry" />
        </mxCell>
        <mxCell id="Z1SM0eiADVsY9dwLEN33-144" value="&lt;span style=&quot;color: rgb(0, 0, 0); font-family: Helvetica; font-size: 12px; font-style: normal; font-variant-ligatures: normal; font-variant-caps: normal; font-weight: 400; letter-spacing: normal; orphans: 2; text-indent: 0px; text-transform: none; widows: 2; word-spacing: 0px; -webkit-text-stroke-width: 0px; white-space: nowrap; background-color: rgb(255, 255, 255); text-decoration-thickness: initial; text-decoration-style: initial; text-decoration-color: initial; float: none; display: inline !important;&quot;&gt;New Node&lt;/span&gt;" style="text;whiteSpace=wrap;html=1;align=center;verticalAlign=middle;" vertex="1" parent="1">
          <mxGeometry x="620" y="2020" width="120" height="20" as="geometry" />
        </mxCell>
        <mxCell id="Z1SM0eiADVsY9dwLEN33-181" value="old_tail_weak" style="rounded=0;whiteSpace=wrap;html=1;" vertex="1" parent="1">
          <mxGeometry x="480" y="1600" width="120" height="40" as="geometry" />
        </mxCell>
        <mxCell id="Z1SM0eiADVsY9dwLEN33-182" value="" style="endArrow=classic;html=1;rounded=0;startSize=19;endSize=5;strokeWidth=2;strokeColor=#999999;entryX=0.5;entryY=0;entryDx=0;entryDy=0;exitX=0.5;exitY=1;exitDx=0;exitDy=0;" edge="1" parent="1" source="Z1SM0eiADVsY9dwLEN33-181" target="Z1SM0eiADVsY9dwLEN33-127">
          <mxGeometry width="50" height="50" relative="1" as="geometry">
            <mxPoint x="490" y="1700" as="sourcePoint" />
            <mxPoint x="370" y="1690" as="targetPoint" />
          </mxGeometry>
        </mxCell>
        <mxCell id="Z1SM0eiADVsY9dwLEN33-186" value="" style="rounded=0;whiteSpace=wrap;html=1;fillColor=none;" vertex="1" parent="1">
          <mxGeometry x="-40" y="2160" width="260" height="60" as="geometry" />
        </mxCell>
        <mxCell id="Z1SM0eiADVsY9dwLEN33-187" value="head" style="rounded=0;whiteSpace=wrap;html=1;" vertex="1" parent="1">
          <mxGeometry x="-30" y="2170" width="80" height="40" as="geometry" />
        </mxCell>
        <mxCell id="Z1SM0eiADVsY9dwLEN33-188" value="None" style="rounded=0;whiteSpace=wrap;html=1;fillColor=#999999;strokeColor=none;fontColor=#FFFFFF;" vertex="1" parent="1">
          <mxGeometry x="130" y="2170" width="80" height="40" as="geometry" />
        </mxCell>
        <mxCell id="Z1SM0eiADVsY9dwLEN33-189" value="count" style="rounded=0;whiteSpace=wrap;html=1;" vertex="1" parent="1">
          <mxGeometry x="60" y="2170" width="60" height="40" as="geometry" />
        </mxCell>
        <mxCell id="Z1SM0eiADVsY9dwLEN33-190" value="DoublyLinkedList" style="text;html=1;align=center;verticalAlign=middle;resizable=0;points=[];autosize=1;strokeColor=none;fillColor=none;" vertex="1" parent="1">
          <mxGeometry x="35" y="2130" width="110" height="30" as="geometry" />
        </mxCell>
        <mxCell id="Z1SM0eiADVsY9dwLEN33-191" value="" style="group" vertex="1" connectable="0" parent="1">
          <mxGeometry x="-270" y="2370" width="160" height="220" as="geometry" />
        </mxCell>
        <mxCell id="Z1SM0eiADVsY9dwLEN33-192" value="" style="rounded=0;whiteSpace=wrap;html=1;fillColor=none;" vertex="1" parent="Z1SM0eiADVsY9dwLEN33-191">
          <mxGeometry width="160" height="220" as="geometry" />
        </mxCell>
        <mxCell id="Z1SM0eiADVsY9dwLEN33-193" value="prev&lt;span style=&quot;white-space: pre;&quot;&gt;&#x9;&lt;/span&gt;" style="rounded=0;whiteSpace=wrap;html=1;fillColor=none;" vertex="1" parent="Z1SM0eiADVsY9dwLEN33-191">
          <mxGeometry x="20" y="20" width="120" height="40" as="geometry" />
        </mxCell>
        <mxCell id="Z1SM0eiADVsY9dwLEN33-194" value="data" style="rounded=0;whiteSpace=wrap;html=1;fillColor=none;" vertex="1" parent="Z1SM0eiADVsY9dwLEN33-191">
          <mxGeometry x="20" y="80" width="120" height="60" as="geometry" />
        </mxCell>
        <mxCell id="Z1SM0eiADVsY9dwLEN33-195" value="next" style="rounded=0;whiteSpace=wrap;html=1;fillColor=none;" vertex="1" parent="Z1SM0eiADVsY9dwLEN33-191">
          <mxGeometry x="20" y="160" width="120" height="40" as="geometry" />
        </mxCell>
        <mxCell id="Z1SM0eiADVsY9dwLEN33-196" value="" style="group" vertex="1" connectable="0" parent="1">
          <mxGeometry x="10" y="2370" width="160" height="220" as="geometry" />
        </mxCell>
        <mxCell id="Z1SM0eiADVsY9dwLEN33-197" value="" style="rounded=0;whiteSpace=wrap;html=1;fillColor=none;" vertex="1" parent="Z1SM0eiADVsY9dwLEN33-196">
          <mxGeometry width="160" height="220" as="geometry" />
        </mxCell>
        <mxCell id="Z1SM0eiADVsY9dwLEN33-198" value="prev&lt;span style=&quot;white-space: pre;&quot;&gt;&#x9;&lt;/span&gt;" style="rounded=0;whiteSpace=wrap;html=1;fillColor=none;" vertex="1" parent="Z1SM0eiADVsY9dwLEN33-196">
          <mxGeometry x="20" y="20" width="120" height="40" as="geometry" />
        </mxCell>
        <mxCell id="Z1SM0eiADVsY9dwLEN33-199" value="data" style="rounded=0;whiteSpace=wrap;html=1;fillColor=none;" vertex="1" parent="Z1SM0eiADVsY9dwLEN33-196">
          <mxGeometry x="20" y="80" width="120" height="60" as="geometry" />
        </mxCell>
        <mxCell id="Z1SM0eiADVsY9dwLEN33-200" value="next" style="rounded=0;whiteSpace=wrap;html=1;fillColor=none;" vertex="1" parent="Z1SM0eiADVsY9dwLEN33-196">
          <mxGeometry x="20" y="160" width="120" height="40" as="geometry" />
        </mxCell>
        <mxCell id="Z1SM0eiADVsY9dwLEN33-201" value="" style="endArrow=classic;html=1;rounded=0;startSize=19;endSize=5;strokeWidth=2;strokeColor=#0000FF;" edge="1" parent="Z1SM0eiADVsY9dwLEN33-196">
          <mxGeometry width="50" height="50" relative="1" as="geometry">
            <mxPoint x="-140" y="179.5" as="sourcePoint" />
            <mxPoint y="180" as="targetPoint" />
          </mxGeometry>
        </mxCell>
        <mxCell id="Z1SM0eiADVsY9dwLEN33-202" value="" style="group" vertex="1" connectable="0" parent="1">
          <mxGeometry x="290" y="2370" width="160" height="220" as="geometry" />
        </mxCell>
        <mxCell id="Z1SM0eiADVsY9dwLEN33-203" value="" style="rounded=0;whiteSpace=wrap;html=1;fillColor=none;" vertex="1" parent="Z1SM0eiADVsY9dwLEN33-202">
          <mxGeometry width="160" height="220" as="geometry" />
        </mxCell>
        <mxCell id="Z1SM0eiADVsY9dwLEN33-204" value="prev&lt;span style=&quot;white-space: pre;&quot;&gt;&#x9;&lt;/span&gt;" style="rounded=0;whiteSpace=wrap;html=1;fillColor=none;" vertex="1" parent="Z1SM0eiADVsY9dwLEN33-202">
          <mxGeometry x="20" y="20" width="120" height="40" as="geometry" />
        </mxCell>
        <mxCell id="Z1SM0eiADVsY9dwLEN33-205" value="data" style="rounded=0;whiteSpace=wrap;html=1;fillColor=none;" vertex="1" parent="Z1SM0eiADVsY9dwLEN33-202">
          <mxGeometry x="20" y="80" width="120" height="60" as="geometry" />
        </mxCell>
        <mxCell id="Z1SM0eiADVsY9dwLEN33-206" value="next" style="rounded=0;whiteSpace=wrap;html=1;fillColor=none;" vertex="1" parent="Z1SM0eiADVsY9dwLEN33-202">
          <mxGeometry x="20" y="160" width="120" height="40" as="geometry" />
        </mxCell>
        <mxCell id="Z1SM0eiADVsY9dwLEN33-207" value="" style="endArrow=classic;html=1;rounded=0;startSize=19;endSize=5;strokeWidth=2;strokeColor=#999999;" edge="1" parent="1">
          <mxGeometry width="50" height="50" relative="1" as="geometry">
            <mxPoint x="30" y="2410.5" as="sourcePoint" />
            <mxPoint x="-110" y="2410" as="targetPoint" />
          </mxGeometry>
        </mxCell>
        <mxCell id="Z1SM0eiADVsY9dwLEN33-208" value="" style="endArrow=classic;html=1;rounded=0;startSize=19;endSize=5;strokeWidth=2;strokeColor=#0000FF;" edge="1" parent="1">
          <mxGeometry width="50" height="50" relative="1" as="geometry">
            <mxPoint x="150" y="2549.25" as="sourcePoint" />
            <mxPoint x="290" y="2549.75" as="targetPoint" />
          </mxGeometry>
        </mxCell>
        <mxCell id="Z1SM0eiADVsY9dwLEN33-209" value="" style="endArrow=classic;html=1;rounded=0;startSize=19;endSize=5;strokeWidth=2;strokeColor=#999999;" edge="1" parent="1">
          <mxGeometry width="50" height="50" relative="1" as="geometry">
            <mxPoint x="310" y="2410.25" as="sourcePoint" />
            <mxPoint x="170" y="2409.75" as="targetPoint" />
          </mxGeometry>
        </mxCell>
        <mxCell id="Z1SM0eiADVsY9dwLEN33-210" value="" style="endArrow=classic;html=1;rounded=0;startSize=19;endSize=5;strokeWidth=2;strokeColor=#0000FF;entryX=0.5;entryY=0;entryDx=0;entryDy=0;exitX=0.5;exitY=1;exitDx=0;exitDy=0;" edge="1" parent="1" source="Z1SM0eiADVsY9dwLEN33-187" target="Z1SM0eiADVsY9dwLEN33-192">
          <mxGeometry width="50" height="50" relative="1" as="geometry">
            <mxPoint x="-142" y="2243" as="sourcePoint" />
            <mxPoint x="580" y="2244.5" as="targetPoint" />
          </mxGeometry>
        </mxCell>
        <mxCell id="Z1SM0eiADVsY9dwLEN33-211" value="&lt;span style=&quot;color: rgb(0, 0, 0); font-family: Helvetica; font-size: 12px; font-style: normal; font-variant-ligatures: normal; font-variant-caps: normal; font-weight: 400; letter-spacing: normal; orphans: 2; text-indent: 0px; text-transform: none; widows: 2; word-spacing: 0px; -webkit-text-stroke-width: 0px; white-space: nowrap; background-color: rgb(255, 255, 255); text-decoration-thickness: initial; text-decoration-style: initial; text-decoration-color: initial; float: none; display: inline !important;&quot;&gt;Node&lt;/span&gt;" style="text;whiteSpace=wrap;html=1;align=center;verticalAlign=middle;" vertex="1" parent="1">
          <mxGeometry x="-250" y="2590" width="120" height="20" as="geometry" />
        </mxCell>
        <mxCell id="Z1SM0eiADVsY9dwLEN33-212" value="&lt;span style=&quot;color: rgb(0, 0, 0); font-family: Helvetica; font-size: 12px; font-style: normal; font-variant-ligatures: normal; font-variant-caps: normal; font-weight: 400; letter-spacing: normal; orphans: 2; text-indent: 0px; text-transform: none; widows: 2; word-spacing: 0px; -webkit-text-stroke-width: 0px; white-space: nowrap; background-color: rgb(255, 255, 255); text-decoration-thickness: initial; text-decoration-style: initial; text-decoration-color: initial; float: none; display: inline !important;&quot;&gt;Node&lt;/span&gt;" style="text;whiteSpace=wrap;html=1;align=center;verticalAlign=middle;" vertex="1" parent="1">
          <mxGeometry x="30" y="2590" width="120" height="20" as="geometry" />
        </mxCell>
        <mxCell id="Z1SM0eiADVsY9dwLEN33-213" value="&lt;span style=&quot;color: rgb(0, 0, 0); font-family: Helvetica; font-size: 12px; font-style: normal; font-variant-ligatures: normal; font-variant-caps: normal; font-weight: 400; letter-spacing: normal; orphans: 2; text-indent: 0px; text-transform: none; widows: 2; word-spacing: 0px; -webkit-text-stroke-width: 0px; white-space: nowrap; background-color: rgb(255, 255, 255); text-decoration-thickness: initial; text-decoration-style: initial; text-decoration-color: initial; float: none; display: inline !important;&quot;&gt;Node&lt;/span&gt;" style="text;whiteSpace=wrap;html=1;align=center;verticalAlign=middle;" vertex="1" parent="1">
          <mxGeometry x="310" y="2590" width="120" height="20" as="geometry" />
        </mxCell>
        <mxCell id="Z1SM0eiADVsY9dwLEN33-214" value="" style="group" vertex="1" connectable="0" parent="1">
          <mxGeometry x="610" y="2370" width="160" height="220" as="geometry" />
        </mxCell>
        <mxCell id="Z1SM0eiADVsY9dwLEN33-215" value="" style="rounded=0;whiteSpace=wrap;html=1;fillColor=none;" vertex="1" parent="Z1SM0eiADVsY9dwLEN33-214">
          <mxGeometry width="160" height="220" as="geometry" />
        </mxCell>
        <mxCell id="Z1SM0eiADVsY9dwLEN33-216" value="prev&lt;span style=&quot;white-space: pre;&quot;&gt;&#x9;&lt;/span&gt;" style="rounded=0;whiteSpace=wrap;html=1;fillColor=none;" vertex="1" parent="Z1SM0eiADVsY9dwLEN33-214">
          <mxGeometry x="20" y="20" width="120" height="40" as="geometry" />
        </mxCell>
        <mxCell id="Z1SM0eiADVsY9dwLEN33-217" value="data" style="rounded=0;whiteSpace=wrap;html=1;fillColor=none;" vertex="1" parent="Z1SM0eiADVsY9dwLEN33-214">
          <mxGeometry x="20" y="80" width="120" height="60" as="geometry" />
        </mxCell>
        <mxCell id="Z1SM0eiADVsY9dwLEN33-218" value="next" style="rounded=0;whiteSpace=wrap;html=1;fillColor=none;" vertex="1" parent="Z1SM0eiADVsY9dwLEN33-214">
          <mxGeometry x="20" y="160" width="120" height="40" as="geometry" />
        </mxCell>
        <mxCell id="Z1SM0eiADVsY9dwLEN33-219" value="&lt;span style=&quot;color: rgb(0, 0, 0); font-family: Helvetica; font-size: 12px; font-style: normal; font-variant-ligatures: normal; font-variant-caps: normal; font-weight: 400; letter-spacing: normal; orphans: 2; text-indent: 0px; text-transform: none; widows: 2; word-spacing: 0px; -webkit-text-stroke-width: 0px; white-space: nowrap; background-color: rgb(255, 255, 255); text-decoration-thickness: initial; text-decoration-style: initial; text-decoration-color: initial; float: none; display: inline !important;&quot;&gt;New Node&lt;/span&gt;" style="text;whiteSpace=wrap;html=1;align=center;verticalAlign=middle;" vertex="1" parent="1">
          <mxGeometry x="630" y="2590" width="120" height="20" as="geometry" />
        </mxCell>
        <mxCell id="Z1SM0eiADVsY9dwLEN33-220" value="old_tail" style="rounded=0;whiteSpace=wrap;html=1;" vertex="1" parent="1">
          <mxGeometry x="640" y="2160" width="60" height="40" as="geometry" />
        </mxCell>
        <mxCell id="Z1SM0eiADVsY9dwLEN33-221" value="" style="endArrow=classic;html=1;rounded=0;startSize=19;endSize=5;strokeWidth=2;strokeColor=#0000FF;entryX=1;entryY=0;entryDx=0;entryDy=0;exitX=0.5;exitY=1;exitDx=0;exitDy=0;" edge="1" parent="1" source="Z1SM0eiADVsY9dwLEN33-220" target="Z1SM0eiADVsY9dwLEN33-203">
          <mxGeometry width="50" height="50" relative="1" as="geometry">
            <mxPoint x="500" y="2270" as="sourcePoint" />
            <mxPoint x="380" y="2260" as="targetPoint" />
          </mxGeometry>
        </mxCell>
        <mxCell id="Z1SM0eiADVsY9dwLEN33-222" value="" style="rounded=0;whiteSpace=wrap;html=1;fillColor=none;" vertex="1" parent="1">
          <mxGeometry x="-50" y="2740" width="260" height="60" as="geometry" />
        </mxCell>
        <mxCell id="Z1SM0eiADVsY9dwLEN33-223" value="head" style="rounded=0;whiteSpace=wrap;html=1;" vertex="1" parent="1">
          <mxGeometry x="-40" y="2750" width="80" height="40" as="geometry" />
        </mxCell>
        <mxCell id="Z1SM0eiADVsY9dwLEN33-224" value="None" style="rounded=0;whiteSpace=wrap;html=1;fillColor=#999999;strokeColor=none;fontColor=#FFFFFF;" vertex="1" parent="1">
          <mxGeometry x="120" y="2750" width="80" height="40" as="geometry" />
        </mxCell>
        <mxCell id="Z1SM0eiADVsY9dwLEN33-225" value="count" style="rounded=0;whiteSpace=wrap;html=1;" vertex="1" parent="1">
          <mxGeometry x="50" y="2750" width="60" height="40" as="geometry" />
        </mxCell>
        <mxCell id="Z1SM0eiADVsY9dwLEN33-226" value="DoublyLinkedList" style="text;html=1;align=center;verticalAlign=middle;resizable=0;points=[];autosize=1;strokeColor=none;fillColor=none;" vertex="1" parent="1">
          <mxGeometry x="25" y="2710" width="110" height="30" as="geometry" />
        </mxCell>
        <mxCell id="Z1SM0eiADVsY9dwLEN33-227" value="" style="group" vertex="1" connectable="0" parent="1">
          <mxGeometry x="-280" y="2950" width="160" height="220" as="geometry" />
        </mxCell>
        <mxCell id="Z1SM0eiADVsY9dwLEN33-228" value="" style="rounded=0;whiteSpace=wrap;html=1;fillColor=none;" vertex="1" parent="Z1SM0eiADVsY9dwLEN33-227">
          <mxGeometry width="160" height="220" as="geometry" />
        </mxCell>
        <mxCell id="Z1SM0eiADVsY9dwLEN33-229" value="prev&lt;span style=&quot;white-space: pre;&quot;&gt;&#x9;&lt;/span&gt;" style="rounded=0;whiteSpace=wrap;html=1;fillColor=none;" vertex="1" parent="Z1SM0eiADVsY9dwLEN33-227">
          <mxGeometry x="20" y="20" width="120" height="40" as="geometry" />
        </mxCell>
        <mxCell id="Z1SM0eiADVsY9dwLEN33-230" value="data" style="rounded=0;whiteSpace=wrap;html=1;fillColor=none;" vertex="1" parent="Z1SM0eiADVsY9dwLEN33-227">
          <mxGeometry x="20" y="80" width="120" height="60" as="geometry" />
        </mxCell>
        <mxCell id="Z1SM0eiADVsY9dwLEN33-231" value="next" style="rounded=0;whiteSpace=wrap;html=1;fillColor=none;" vertex="1" parent="Z1SM0eiADVsY9dwLEN33-227">
          <mxGeometry x="20" y="160" width="120" height="40" as="geometry" />
        </mxCell>
        <mxCell id="Z1SM0eiADVsY9dwLEN33-232" value="" style="group" vertex="1" connectable="0" parent="1">
          <mxGeometry y="2950" width="160" height="220" as="geometry" />
        </mxCell>
        <mxCell id="Z1SM0eiADVsY9dwLEN33-233" value="" style="rounded=0;whiteSpace=wrap;html=1;fillColor=none;" vertex="1" parent="Z1SM0eiADVsY9dwLEN33-232">
          <mxGeometry width="160" height="220" as="geometry" />
        </mxCell>
        <mxCell id="Z1SM0eiADVsY9dwLEN33-234" value="prev&lt;span style=&quot;white-space: pre;&quot;&gt;&#x9;&lt;/span&gt;" style="rounded=0;whiteSpace=wrap;html=1;fillColor=none;" vertex="1" parent="Z1SM0eiADVsY9dwLEN33-232">
          <mxGeometry x="20" y="20" width="120" height="40" as="geometry" />
        </mxCell>
        <mxCell id="Z1SM0eiADVsY9dwLEN33-235" value="data" style="rounded=0;whiteSpace=wrap;html=1;fillColor=none;" vertex="1" parent="Z1SM0eiADVsY9dwLEN33-232">
          <mxGeometry x="20" y="80" width="120" height="60" as="geometry" />
        </mxCell>
        <mxCell id="Z1SM0eiADVsY9dwLEN33-236" value="next" style="rounded=0;whiteSpace=wrap;html=1;fillColor=none;" vertex="1" parent="Z1SM0eiADVsY9dwLEN33-232">
          <mxGeometry x="20" y="160" width="120" height="40" as="geometry" />
        </mxCell>
        <mxCell id="Z1SM0eiADVsY9dwLEN33-237" value="" style="endArrow=classic;html=1;rounded=0;startSize=19;endSize=5;strokeWidth=2;strokeColor=#0000FF;" edge="1" parent="Z1SM0eiADVsY9dwLEN33-232">
          <mxGeometry width="50" height="50" relative="1" as="geometry">
            <mxPoint x="-140" y="179.5" as="sourcePoint" />
            <mxPoint y="180" as="targetPoint" />
          </mxGeometry>
        </mxCell>
        <mxCell id="Z1SM0eiADVsY9dwLEN33-238" value="" style="group" vertex="1" connectable="0" parent="1">
          <mxGeometry x="280" y="2950" width="160" height="220" as="geometry" />
        </mxCell>
        <mxCell id="Z1SM0eiADVsY9dwLEN33-239" value="" style="rounded=0;whiteSpace=wrap;html=1;fillColor=none;" vertex="1" parent="Z1SM0eiADVsY9dwLEN33-238">
          <mxGeometry width="160" height="220" as="geometry" />
        </mxCell>
        <mxCell id="Z1SM0eiADVsY9dwLEN33-240" value="prev&lt;span style=&quot;white-space: pre;&quot;&gt;&#x9;&lt;/span&gt;" style="rounded=0;whiteSpace=wrap;html=1;fillColor=none;" vertex="1" parent="Z1SM0eiADVsY9dwLEN33-238">
          <mxGeometry x="20" y="20" width="120" height="40" as="geometry" />
        </mxCell>
        <mxCell id="Z1SM0eiADVsY9dwLEN33-241" value="data" style="rounded=0;whiteSpace=wrap;html=1;fillColor=none;" vertex="1" parent="Z1SM0eiADVsY9dwLEN33-238">
          <mxGeometry x="20" y="80" width="120" height="60" as="geometry" />
        </mxCell>
        <mxCell id="Z1SM0eiADVsY9dwLEN33-242" value="next" style="rounded=0;whiteSpace=wrap;html=1;fillColor=none;" vertex="1" parent="Z1SM0eiADVsY9dwLEN33-238">
          <mxGeometry x="20" y="160" width="120" height="40" as="geometry" />
        </mxCell>
        <mxCell id="Z1SM0eiADVsY9dwLEN33-243" value="" style="endArrow=classic;html=1;rounded=0;startSize=19;endSize=5;strokeWidth=2;strokeColor=#999999;" edge="1" parent="1">
          <mxGeometry width="50" height="50" relative="1" as="geometry">
            <mxPoint x="20" y="2990.5" as="sourcePoint" />
            <mxPoint x="-120" y="2990" as="targetPoint" />
          </mxGeometry>
        </mxCell>
        <mxCell id="Z1SM0eiADVsY9dwLEN33-244" value="" style="endArrow=classic;html=1;rounded=0;startSize=19;endSize=5;strokeWidth=2;strokeColor=#0000FF;" edge="1" parent="1">
          <mxGeometry width="50" height="50" relative="1" as="geometry">
            <mxPoint x="140" y="3129.25" as="sourcePoint" />
            <mxPoint x="280" y="3129.75" as="targetPoint" />
          </mxGeometry>
        </mxCell>
        <mxCell id="Z1SM0eiADVsY9dwLEN33-245" value="" style="endArrow=classic;html=1;rounded=0;startSize=19;endSize=5;strokeWidth=2;strokeColor=#999999;" edge="1" parent="1">
          <mxGeometry width="50" height="50" relative="1" as="geometry">
            <mxPoint x="300" y="2990.25" as="sourcePoint" />
            <mxPoint x="160" y="2989.75" as="targetPoint" />
          </mxGeometry>
        </mxCell>
        <mxCell id="Z1SM0eiADVsY9dwLEN33-246" value="" style="endArrow=classic;html=1;rounded=0;startSize=19;endSize=5;strokeWidth=2;strokeColor=#0000FF;entryX=0.5;entryY=0;entryDx=0;entryDy=0;exitX=0.5;exitY=1;exitDx=0;exitDy=0;" edge="1" parent="1" source="Z1SM0eiADVsY9dwLEN33-223" target="Z1SM0eiADVsY9dwLEN33-228">
          <mxGeometry width="50" height="50" relative="1" as="geometry">
            <mxPoint x="-152" y="2823" as="sourcePoint" />
            <mxPoint x="570" y="2824.5" as="targetPoint" />
          </mxGeometry>
        </mxCell>
        <mxCell id="Z1SM0eiADVsY9dwLEN33-247" value="&lt;span style=&quot;color: rgb(0, 0, 0); font-family: Helvetica; font-size: 12px; font-style: normal; font-variant-ligatures: normal; font-variant-caps: normal; font-weight: 400; letter-spacing: normal; orphans: 2; text-indent: 0px; text-transform: none; widows: 2; word-spacing: 0px; -webkit-text-stroke-width: 0px; white-space: nowrap; background-color: rgb(255, 255, 255); text-decoration-thickness: initial; text-decoration-style: initial; text-decoration-color: initial; float: none; display: inline !important;&quot;&gt;Node&lt;/span&gt;" style="text;whiteSpace=wrap;html=1;align=center;verticalAlign=middle;" vertex="1" parent="1">
          <mxGeometry x="-260" y="3170" width="120" height="20" as="geometry" />
        </mxCell>
        <mxCell id="Z1SM0eiADVsY9dwLEN33-248" value="&lt;span style=&quot;color: rgb(0, 0, 0); font-family: Helvetica; font-size: 12px; font-style: normal; font-variant-ligatures: normal; font-variant-caps: normal; font-weight: 400; letter-spacing: normal; orphans: 2; text-indent: 0px; text-transform: none; widows: 2; word-spacing: 0px; -webkit-text-stroke-width: 0px; white-space: nowrap; background-color: rgb(255, 255, 255); text-decoration-thickness: initial; text-decoration-style: initial; text-decoration-color: initial; float: none; display: inline !important;&quot;&gt;Node&lt;/span&gt;" style="text;whiteSpace=wrap;html=1;align=center;verticalAlign=middle;" vertex="1" parent="1">
          <mxGeometry x="20" y="3170" width="120" height="20" as="geometry" />
        </mxCell>
        <mxCell id="Z1SM0eiADVsY9dwLEN33-249" value="&lt;span style=&quot;color: rgb(0, 0, 0); font-family: Helvetica; font-size: 12px; font-style: normal; font-variant-ligatures: normal; font-variant-caps: normal; font-weight: 400; letter-spacing: normal; orphans: 2; text-indent: 0px; text-transform: none; widows: 2; word-spacing: 0px; -webkit-text-stroke-width: 0px; white-space: nowrap; background-color: rgb(255, 255, 255); text-decoration-thickness: initial; text-decoration-style: initial; text-decoration-color: initial; float: none; display: inline !important;&quot;&gt;Node&lt;/span&gt;" style="text;whiteSpace=wrap;html=1;align=center;verticalAlign=middle;" vertex="1" parent="1">
          <mxGeometry x="300" y="3170" width="120" height="20" as="geometry" />
        </mxCell>
        <mxCell id="Z1SM0eiADVsY9dwLEN33-250" value="" style="group" vertex="1" connectable="0" parent="1">
          <mxGeometry x="600" y="2950" width="160" height="220" as="geometry" />
        </mxCell>
        <mxCell id="Z1SM0eiADVsY9dwLEN33-251" value="" style="rounded=0;whiteSpace=wrap;html=1;fillColor=none;" vertex="1" parent="Z1SM0eiADVsY9dwLEN33-250">
          <mxGeometry width="160" height="220" as="geometry" />
        </mxCell>
        <mxCell id="Z1SM0eiADVsY9dwLEN33-252" value="prev&lt;span style=&quot;white-space: pre;&quot;&gt;&#x9;&lt;/span&gt;" style="rounded=0;whiteSpace=wrap;html=1;fillColor=none;" vertex="1" parent="Z1SM0eiADVsY9dwLEN33-250">
          <mxGeometry x="20" y="20" width="120" height="40" as="geometry" />
        </mxCell>
        <mxCell id="Z1SM0eiADVsY9dwLEN33-253" value="data" style="rounded=0;whiteSpace=wrap;html=1;fillColor=none;" vertex="1" parent="Z1SM0eiADVsY9dwLEN33-250">
          <mxGeometry x="20" y="80" width="120" height="60" as="geometry" />
        </mxCell>
        <mxCell id="Z1SM0eiADVsY9dwLEN33-254" value="next" style="rounded=0;whiteSpace=wrap;html=1;fillColor=none;" vertex="1" parent="Z1SM0eiADVsY9dwLEN33-250">
          <mxGeometry x="20" y="160" width="120" height="40" as="geometry" />
        </mxCell>
        <mxCell id="Z1SM0eiADVsY9dwLEN33-255" value="&lt;span style=&quot;color: rgb(0, 0, 0); font-family: Helvetica; font-size: 12px; font-style: normal; font-variant-ligatures: normal; font-variant-caps: normal; font-weight: 400; letter-spacing: normal; orphans: 2; text-indent: 0px; text-transform: none; widows: 2; word-spacing: 0px; -webkit-text-stroke-width: 0px; white-space: nowrap; background-color: rgb(255, 255, 255); text-decoration-thickness: initial; text-decoration-style: initial; text-decoration-color: initial; float: none; display: inline !important;&quot;&gt;New Node&lt;/span&gt;" style="text;whiteSpace=wrap;html=1;align=center;verticalAlign=middle;" vertex="1" parent="1">
          <mxGeometry x="620" y="3170" width="120" height="20" as="geometry" />
        </mxCell>
        <mxCell id="Z1SM0eiADVsY9dwLEN33-256" value="old_tail" style="rounded=0;whiteSpace=wrap;html=1;" vertex="1" parent="1">
          <mxGeometry x="480" y="2750" width="60" height="40" as="geometry" />
        </mxCell>
        <mxCell id="Z1SM0eiADVsY9dwLEN33-257" value="" style="endArrow=classic;html=1;rounded=0;startSize=19;endSize=5;strokeWidth=2;strokeColor=#0000FF;entryX=0.5;entryY=0;entryDx=0;entryDy=0;exitX=0.5;exitY=1;exitDx=0;exitDy=0;" edge="1" parent="1" source="Z1SM0eiADVsY9dwLEN33-256" target="Z1SM0eiADVsY9dwLEN33-239">
          <mxGeometry width="50" height="50" relative="1" as="geometry">
            <mxPoint x="490" y="2850" as="sourcePoint" />
            <mxPoint x="370" y="2840" as="targetPoint" />
          </mxGeometry>
        </mxCell>
        <mxCell id="Z1SM0eiADVsY9dwLEN33-258" value="" style="endArrow=classic;html=1;rounded=0;startSize=19;endSize=5;strokeWidth=2;strokeColor=#0000FF;entryX=0;entryY=0.822;entryDx=0;entryDy=0;exitX=1;exitY=0.5;exitDx=0;exitDy=0;entryPerimeter=0;" edge="1" parent="1" source="Z1SM0eiADVsY9dwLEN33-242" target="Z1SM0eiADVsY9dwLEN33-251">
          <mxGeometry width="50" height="50" relative="1" as="geometry">
            <mxPoint x="520" y="2800" as="sourcePoint" />
            <mxPoint x="370" y="2960" as="targetPoint" />
          </mxGeometry>
        </mxCell>
        <mxCell id="Z1SM0eiADVsY9dwLEN33-259" value="old_tail_weak" style="rounded=0;whiteSpace=wrap;html=1;" vertex="1" parent="1">
          <mxGeometry x="440" y="2160" width="120" height="40" as="geometry" />
        </mxCell>
        <mxCell id="Z1SM0eiADVsY9dwLEN33-260" value="" style="endArrow=classic;html=1;rounded=0;startSize=19;endSize=5;strokeWidth=2;strokeColor=#999999;entryX=0.5;entryY=0;entryDx=0;entryDy=0;exitX=0.5;exitY=1;exitDx=0;exitDy=0;" edge="1" parent="1" source="Z1SM0eiADVsY9dwLEN33-259" target="Z1SM0eiADVsY9dwLEN33-203">
          <mxGeometry width="50" height="50" relative="1" as="geometry">
            <mxPoint x="450" y="2180" as="sourcePoint" />
            <mxPoint x="320" y="2280" as="targetPoint" />
          </mxGeometry>
        </mxCell>
        <mxCell id="Z1SM0eiADVsY9dwLEN33-261" value="" style="endArrow=classic;html=1;rounded=0;startSize=19;endSize=5;strokeWidth=2;strokeColor=#999999;entryX=1.005;entryY=0.187;entryDx=0;entryDy=0;exitX=0;exitY=0.5;exitDx=0;exitDy=0;entryPerimeter=0;" edge="1" parent="1" source="Z1SM0eiADVsY9dwLEN33-252" target="Z1SM0eiADVsY9dwLEN33-239">
          <mxGeometry width="50" height="50" relative="1" as="geometry">
            <mxPoint x="510" y="2210" as="sourcePoint" />
            <mxPoint x="380" y="2380" as="targetPoint" />
          </mxGeometry>
        </mxCell>
        <mxCell id="Z1SM0eiADVsY9dwLEN33-262" value="" style="rounded=0;whiteSpace=wrap;html=1;fillColor=none;" vertex="1" parent="1">
          <mxGeometry x="-50" y="3310" width="260" height="60" as="geometry" />
        </mxCell>
        <mxCell id="Z1SM0eiADVsY9dwLEN33-263" value="head" style="rounded=0;whiteSpace=wrap;html=1;" vertex="1" parent="1">
          <mxGeometry x="-40" y="3320" width="80" height="40" as="geometry" />
        </mxCell>
        <mxCell id="Z1SM0eiADVsY9dwLEN33-264" value="Tail" style="rounded=0;whiteSpace=wrap;html=1;fillColor=none;strokeColor=default;fontColor=default;" vertex="1" parent="1">
          <mxGeometry x="120" y="3320" width="80" height="40" as="geometry" />
        </mxCell>
        <mxCell id="Z1SM0eiADVsY9dwLEN33-265" value="count" style="rounded=0;whiteSpace=wrap;html=1;" vertex="1" parent="1">
          <mxGeometry x="50" y="3320" width="60" height="40" as="geometry" />
        </mxCell>
        <mxCell id="Z1SM0eiADVsY9dwLEN33-266" value="DoublyLinkedList" style="text;html=1;align=center;verticalAlign=middle;resizable=0;points=[];autosize=1;strokeColor=none;fillColor=none;" vertex="1" parent="1">
          <mxGeometry x="25" y="3280" width="110" height="30" as="geometry" />
        </mxCell>
        <mxCell id="Z1SM0eiADVsY9dwLEN33-267" value="" style="group" vertex="1" connectable="0" parent="1">
          <mxGeometry x="-280" y="3520" width="160" height="220" as="geometry" />
        </mxCell>
        <mxCell id="Z1SM0eiADVsY9dwLEN33-268" value="" style="rounded=0;whiteSpace=wrap;html=1;fillColor=none;" vertex="1" parent="Z1SM0eiADVsY9dwLEN33-267">
          <mxGeometry width="160" height="220" as="geometry" />
        </mxCell>
        <mxCell id="Z1SM0eiADVsY9dwLEN33-269" value="prev&lt;span style=&quot;white-space: pre;&quot;&gt;&#x9;&lt;/span&gt;" style="rounded=0;whiteSpace=wrap;html=1;fillColor=none;" vertex="1" parent="Z1SM0eiADVsY9dwLEN33-267">
          <mxGeometry x="20" y="20" width="120" height="40" as="geometry" />
        </mxCell>
        <mxCell id="Z1SM0eiADVsY9dwLEN33-270" value="data" style="rounded=0;whiteSpace=wrap;html=1;fillColor=none;" vertex="1" parent="Z1SM0eiADVsY9dwLEN33-267">
          <mxGeometry x="20" y="80" width="120" height="60" as="geometry" />
        </mxCell>
        <mxCell id="Z1SM0eiADVsY9dwLEN33-271" value="next" style="rounded=0;whiteSpace=wrap;html=1;fillColor=none;" vertex="1" parent="Z1SM0eiADVsY9dwLEN33-267">
          <mxGeometry x="20" y="160" width="120" height="40" as="geometry" />
        </mxCell>
        <mxCell id="Z1SM0eiADVsY9dwLEN33-272" value="" style="group" vertex="1" connectable="0" parent="1">
          <mxGeometry y="3520" width="160" height="220" as="geometry" />
        </mxCell>
        <mxCell id="Z1SM0eiADVsY9dwLEN33-273" value="" style="rounded=0;whiteSpace=wrap;html=1;fillColor=none;" vertex="1" parent="Z1SM0eiADVsY9dwLEN33-272">
          <mxGeometry width="160" height="220" as="geometry" />
        </mxCell>
        <mxCell id="Z1SM0eiADVsY9dwLEN33-274" value="prev&lt;span style=&quot;white-space: pre;&quot;&gt;&#x9;&lt;/span&gt;" style="rounded=0;whiteSpace=wrap;html=1;fillColor=none;" vertex="1" parent="Z1SM0eiADVsY9dwLEN33-272">
          <mxGeometry x="20" y="20" width="120" height="40" as="geometry" />
        </mxCell>
        <mxCell id="Z1SM0eiADVsY9dwLEN33-275" value="data" style="rounded=0;whiteSpace=wrap;html=1;fillColor=none;" vertex="1" parent="Z1SM0eiADVsY9dwLEN33-272">
          <mxGeometry x="20" y="80" width="120" height="60" as="geometry" />
        </mxCell>
        <mxCell id="Z1SM0eiADVsY9dwLEN33-276" value="next" style="rounded=0;whiteSpace=wrap;html=1;fillColor=none;" vertex="1" parent="Z1SM0eiADVsY9dwLEN33-272">
          <mxGeometry x="20" y="160" width="120" height="40" as="geometry" />
        </mxCell>
        <mxCell id="Z1SM0eiADVsY9dwLEN33-277" value="" style="endArrow=classic;html=1;rounded=0;startSize=19;endSize=5;strokeWidth=2;strokeColor=#0000FF;" edge="1" parent="Z1SM0eiADVsY9dwLEN33-272">
          <mxGeometry width="50" height="50" relative="1" as="geometry">
            <mxPoint x="-140" y="179.5" as="sourcePoint" />
            <mxPoint y="180" as="targetPoint" />
          </mxGeometry>
        </mxCell>
        <mxCell id="Z1SM0eiADVsY9dwLEN33-278" value="" style="group" vertex="1" connectable="0" parent="1">
          <mxGeometry x="280" y="3520" width="160" height="220" as="geometry" />
        </mxCell>
        <mxCell id="Z1SM0eiADVsY9dwLEN33-279" value="" style="rounded=0;whiteSpace=wrap;html=1;fillColor=none;" vertex="1" parent="Z1SM0eiADVsY9dwLEN33-278">
          <mxGeometry width="160" height="220" as="geometry" />
        </mxCell>
        <mxCell id="Z1SM0eiADVsY9dwLEN33-280" value="prev&lt;span style=&quot;white-space: pre;&quot;&gt;&#x9;&lt;/span&gt;" style="rounded=0;whiteSpace=wrap;html=1;fillColor=none;" vertex="1" parent="Z1SM0eiADVsY9dwLEN33-278">
          <mxGeometry x="20" y="20" width="120" height="40" as="geometry" />
        </mxCell>
        <mxCell id="Z1SM0eiADVsY9dwLEN33-281" value="data" style="rounded=0;whiteSpace=wrap;html=1;fillColor=none;" vertex="1" parent="Z1SM0eiADVsY9dwLEN33-278">
          <mxGeometry x="20" y="80" width="120" height="60" as="geometry" />
        </mxCell>
        <mxCell id="Z1SM0eiADVsY9dwLEN33-282" value="next" style="rounded=0;whiteSpace=wrap;html=1;fillColor=none;" vertex="1" parent="Z1SM0eiADVsY9dwLEN33-278">
          <mxGeometry x="20" y="160" width="120" height="40" as="geometry" />
        </mxCell>
        <mxCell id="Z1SM0eiADVsY9dwLEN33-283" value="" style="endArrow=classic;html=1;rounded=0;startSize=19;endSize=5;strokeWidth=2;strokeColor=#999999;" edge="1" parent="1">
          <mxGeometry width="50" height="50" relative="1" as="geometry">
            <mxPoint x="20" y="3560.5" as="sourcePoint" />
            <mxPoint x="-120" y="3560" as="targetPoint" />
          </mxGeometry>
        </mxCell>
        <mxCell id="Z1SM0eiADVsY9dwLEN33-284" value="" style="endArrow=classic;html=1;rounded=0;startSize=19;endSize=5;strokeWidth=2;strokeColor=#0000FF;" edge="1" parent="1">
          <mxGeometry width="50" height="50" relative="1" as="geometry">
            <mxPoint x="140" y="3699.25" as="sourcePoint" />
            <mxPoint x="280" y="3699.75" as="targetPoint" />
          </mxGeometry>
        </mxCell>
        <mxCell id="Z1SM0eiADVsY9dwLEN33-285" value="" style="endArrow=classic;html=1;rounded=0;startSize=19;endSize=5;strokeWidth=2;strokeColor=#999999;" edge="1" parent="1">
          <mxGeometry width="50" height="50" relative="1" as="geometry">
            <mxPoint x="300" y="3560.25" as="sourcePoint" />
            <mxPoint x="160" y="3559.75" as="targetPoint" />
          </mxGeometry>
        </mxCell>
        <mxCell id="Z1SM0eiADVsY9dwLEN33-286" value="" style="endArrow=classic;html=1;rounded=0;startSize=19;endSize=5;strokeWidth=2;strokeColor=#0000FF;entryX=0.5;entryY=0;entryDx=0;entryDy=0;exitX=0.5;exitY=1;exitDx=0;exitDy=0;" edge="1" parent="1" source="Z1SM0eiADVsY9dwLEN33-263" target="Z1SM0eiADVsY9dwLEN33-268">
          <mxGeometry width="50" height="50" relative="1" as="geometry">
            <mxPoint x="-152" y="3393" as="sourcePoint" />
            <mxPoint x="570" y="3394.5" as="targetPoint" />
          </mxGeometry>
        </mxCell>
        <mxCell id="Z1SM0eiADVsY9dwLEN33-287" value="&lt;span style=&quot;color: rgb(0, 0, 0); font-family: Helvetica; font-size: 12px; font-style: normal; font-variant-ligatures: normal; font-variant-caps: normal; font-weight: 400; letter-spacing: normal; orphans: 2; text-indent: 0px; text-transform: none; widows: 2; word-spacing: 0px; -webkit-text-stroke-width: 0px; white-space: nowrap; background-color: rgb(255, 255, 255); text-decoration-thickness: initial; text-decoration-style: initial; text-decoration-color: initial; float: none; display: inline !important;&quot;&gt;Node&lt;/span&gt;" style="text;whiteSpace=wrap;html=1;align=center;verticalAlign=middle;" vertex="1" parent="1">
          <mxGeometry x="-260" y="3740" width="120" height="20" as="geometry" />
        </mxCell>
        <mxCell id="Z1SM0eiADVsY9dwLEN33-288" value="&lt;span style=&quot;color: rgb(0, 0, 0); font-family: Helvetica; font-size: 12px; font-style: normal; font-variant-ligatures: normal; font-variant-caps: normal; font-weight: 400; letter-spacing: normal; orphans: 2; text-indent: 0px; text-transform: none; widows: 2; word-spacing: 0px; -webkit-text-stroke-width: 0px; white-space: nowrap; background-color: rgb(255, 255, 255); text-decoration-thickness: initial; text-decoration-style: initial; text-decoration-color: initial; float: none; display: inline !important;&quot;&gt;Node&lt;/span&gt;" style="text;whiteSpace=wrap;html=1;align=center;verticalAlign=middle;" vertex="1" parent="1">
          <mxGeometry x="20" y="3740" width="120" height="20" as="geometry" />
        </mxCell>
        <mxCell id="Z1SM0eiADVsY9dwLEN33-289" value="&lt;span style=&quot;color: rgb(0, 0, 0); font-family: Helvetica; font-size: 12px; font-style: normal; font-variant-ligatures: normal; font-variant-caps: normal; font-weight: 400; letter-spacing: normal; orphans: 2; text-indent: 0px; text-transform: none; widows: 2; word-spacing: 0px; -webkit-text-stroke-width: 0px; white-space: nowrap; background-color: rgb(255, 255, 255); text-decoration-thickness: initial; text-decoration-style: initial; text-decoration-color: initial; float: none; display: inline !important;&quot;&gt;Node&lt;/span&gt;" style="text;whiteSpace=wrap;html=1;align=center;verticalAlign=middle;" vertex="1" parent="1">
          <mxGeometry x="300" y="3740" width="120" height="20" as="geometry" />
        </mxCell>
        <mxCell id="Z1SM0eiADVsY9dwLEN33-290" value="" style="group" vertex="1" connectable="0" parent="1">
          <mxGeometry x="600" y="3520" width="160" height="220" as="geometry" />
        </mxCell>
        <mxCell id="Z1SM0eiADVsY9dwLEN33-291" value="" style="rounded=0;whiteSpace=wrap;html=1;fillColor=none;" vertex="1" parent="Z1SM0eiADVsY9dwLEN33-290">
          <mxGeometry width="160" height="220" as="geometry" />
        </mxCell>
        <mxCell id="Z1SM0eiADVsY9dwLEN33-292" value="prev&lt;span style=&quot;white-space: pre;&quot;&gt;&#x9;&lt;/span&gt;" style="rounded=0;whiteSpace=wrap;html=1;fillColor=none;" vertex="1" parent="Z1SM0eiADVsY9dwLEN33-290">
          <mxGeometry x="20" y="20" width="120" height="40" as="geometry" />
        </mxCell>
        <mxCell id="Z1SM0eiADVsY9dwLEN33-293" value="data" style="rounded=0;whiteSpace=wrap;html=1;fillColor=none;" vertex="1" parent="Z1SM0eiADVsY9dwLEN33-290">
          <mxGeometry x="20" y="80" width="120" height="60" as="geometry" />
        </mxCell>
        <mxCell id="Z1SM0eiADVsY9dwLEN33-294" value="next" style="rounded=0;whiteSpace=wrap;html=1;fillColor=none;" vertex="1" parent="Z1SM0eiADVsY9dwLEN33-290">
          <mxGeometry x="20" y="160" width="120" height="40" as="geometry" />
        </mxCell>
        <mxCell id="Z1SM0eiADVsY9dwLEN33-295" value="&lt;span style=&quot;color: rgb(0, 0, 0); font-family: Helvetica; font-size: 12px; font-style: normal; font-variant-ligatures: normal; font-variant-caps: normal; font-weight: 400; letter-spacing: normal; orphans: 2; text-indent: 0px; text-transform: none; widows: 2; word-spacing: 0px; -webkit-text-stroke-width: 0px; white-space: nowrap; background-color: rgb(255, 255, 255); text-decoration-thickness: initial; text-decoration-style: initial; text-decoration-color: initial; float: none; display: inline !important;&quot;&gt;New Node&lt;/span&gt;" style="text;whiteSpace=wrap;html=1;align=center;verticalAlign=middle;" vertex="1" parent="1">
          <mxGeometry x="620" y="3740" width="120" height="20" as="geometry" />
        </mxCell>
        <mxCell id="Z1SM0eiADVsY9dwLEN33-296" value="old_tail" style="rounded=0;whiteSpace=wrap;html=1;" vertex="1" parent="1">
          <mxGeometry x="480" y="3320" width="60" height="40" as="geometry" />
        </mxCell>
        <mxCell id="Z1SM0eiADVsY9dwLEN33-297" value="" style="endArrow=classic;html=1;rounded=0;startSize=19;endSize=5;strokeWidth=2;strokeColor=#0000FF;entryX=0.5;entryY=0;entryDx=0;entryDy=0;exitX=0.5;exitY=1;exitDx=0;exitDy=0;" edge="1" parent="1" source="Z1SM0eiADVsY9dwLEN33-296" target="Z1SM0eiADVsY9dwLEN33-279">
          <mxGeometry width="50" height="50" relative="1" as="geometry">
            <mxPoint x="490" y="3420" as="sourcePoint" />
            <mxPoint x="370" y="3410" as="targetPoint" />
          </mxGeometry>
        </mxCell>
        <mxCell id="Z1SM0eiADVsY9dwLEN33-298" value="" style="endArrow=classic;html=1;rounded=0;startSize=19;endSize=5;strokeWidth=2;strokeColor=#0000FF;entryX=0;entryY=0.822;entryDx=0;entryDy=0;exitX=1;exitY=0.5;exitDx=0;exitDy=0;entryPerimeter=0;" edge="1" parent="1" source="Z1SM0eiADVsY9dwLEN33-282" target="Z1SM0eiADVsY9dwLEN33-291">
          <mxGeometry width="50" height="50" relative="1" as="geometry">
            <mxPoint x="520" y="3370" as="sourcePoint" />
            <mxPoint x="370" y="3530" as="targetPoint" />
          </mxGeometry>
        </mxCell>
        <mxCell id="Z1SM0eiADVsY9dwLEN33-299" value="" style="endArrow=classic;html=1;rounded=0;startSize=19;endSize=5;strokeWidth=2;strokeColor=#999999;entryX=1.005;entryY=0.187;entryDx=0;entryDy=0;exitX=0;exitY=0.5;exitDx=0;exitDy=0;entryPerimeter=0;" edge="1" parent="1" source="Z1SM0eiADVsY9dwLEN33-292" target="Z1SM0eiADVsY9dwLEN33-279">
          <mxGeometry width="50" height="50" relative="1" as="geometry">
            <mxPoint x="510" y="2780" as="sourcePoint" />
            <mxPoint x="380" y="2950" as="targetPoint" />
          </mxGeometry>
        </mxCell>
        <mxCell id="Z1SM0eiADVsY9dwLEN33-300" value="" style="endArrow=classic;html=1;rounded=0;startSize=19;endSize=5;strokeWidth=2;strokeColor=#999999;entryX=0.5;entryY=0;entryDx=0;entryDy=0;exitX=0.5;exitY=1;exitDx=0;exitDy=0;" edge="1" parent="1" source="Z1SM0eiADVsY9dwLEN33-264" target="Z1SM0eiADVsY9dwLEN33-291">
          <mxGeometry width="50" height="50" relative="1" as="geometry">
            <mxPoint x="630" y="3570" as="sourcePoint" />
            <mxPoint x="451" y="3571" as="targetPoint" />
          </mxGeometry>
        </mxCell>
        <mxCell id="Z1SM0eiADVsY9dwLEN33-301" value="new_node" style="rounded=0;whiteSpace=wrap;html=1;" vertex="1" parent="1">
          <mxGeometry x="890" y="3040" width="90" height="40" as="geometry" />
        </mxCell>
        <mxCell id="Z1SM0eiADVsY9dwLEN33-302" value="" style="endArrow=classic;html=1;rounded=0;startSize=19;endSize=5;strokeWidth=2;strokeColor=#0000FF;entryX=1;entryY=0.5;entryDx=0;entryDy=0;exitX=0;exitY=0.5;exitDx=0;exitDy=0;" edge="1" parent="1" source="Z1SM0eiADVsY9dwLEN33-301" target="Z1SM0eiADVsY9dwLEN33-251">
          <mxGeometry width="50" height="50" relative="1" as="geometry">
            <mxPoint x="520" y="2800" as="sourcePoint" />
            <mxPoint x="370" y="2960" as="targetPoint" />
          </mxGeometry>
        </mxCell>
        <mxCell id="Z1SM0eiADVsY9dwLEN33-303" value="new_node" style="rounded=0;whiteSpace=wrap;html=1;" vertex="1" parent="1">
          <mxGeometry x="900" y="2460" width="90" height="40" as="geometry" />
        </mxCell>
        <mxCell id="Z1SM0eiADVsY9dwLEN33-304" value="" style="endArrow=classic;html=1;rounded=0;startSize=19;endSize=5;strokeWidth=2;strokeColor=#0000FF;entryX=1;entryY=0.5;entryDx=0;entryDy=0;exitX=0;exitY=0.5;exitDx=0;exitDy=0;" edge="1" parent="1" source="Z1SM0eiADVsY9dwLEN33-303">
          <mxGeometry width="50" height="50" relative="1" as="geometry">
            <mxPoint x="530" y="2220" as="sourcePoint" />
            <mxPoint x="770" y="2480" as="targetPoint" />
          </mxGeometry>
        </mxCell>
        <mxCell id="Z1SM0eiADVsY9dwLEN33-305" value="new_node" style="rounded=0;whiteSpace=wrap;html=1;" vertex="1" parent="1">
          <mxGeometry x="890" y="1890" width="90" height="40" as="geometry" />
        </mxCell>
        <mxCell id="Z1SM0eiADVsY9dwLEN33-306" value="" style="endArrow=classic;html=1;rounded=0;startSize=19;endSize=5;strokeWidth=2;strokeColor=#0000FF;entryX=1;entryY=0.5;entryDx=0;entryDy=0;exitX=0;exitY=0.5;exitDx=0;exitDy=0;" edge="1" parent="1" source="Z1SM0eiADVsY9dwLEN33-305">
          <mxGeometry width="50" height="50" relative="1" as="geometry">
            <mxPoint x="520" y="1650" as="sourcePoint" />
            <mxPoint x="760" y="1910" as="targetPoint" />
          </mxGeometry>
        </mxCell>
        <mxCell id="Z1SM0eiADVsY9dwLEN33-307" value="new_node" style="rounded=0;whiteSpace=wrap;html=1;" vertex="1" parent="1">
          <mxGeometry x="890" y="3620" width="90" height="40" as="geometry" />
        </mxCell>
        <mxCell id="Z1SM0eiADVsY9dwLEN33-308" value="" style="endArrow=classic;html=1;rounded=0;startSize=19;endSize=5;strokeWidth=2;strokeColor=#0000FF;entryX=1;entryY=0.5;entryDx=0;entryDy=0;exitX=0;exitY=0.5;exitDx=0;exitDy=0;" edge="1" parent="1" source="Z1SM0eiADVsY9dwLEN33-307">
          <mxGeometry width="50" height="50" relative="1" as="geometry">
            <mxPoint x="520" y="3380" as="sourcePoint" />
            <mxPoint x="760" y="3640" as="targetPoint" />
          </mxGeometry>
        </mxCell>
      </root>
    </mxGraphModel>
  </diagram>
</mxfile>
